<svg width="62" height="48" viewBox="0 0 62 48" fill="none" xmlns="http://www.w3.org/2000/svg">
<path d="M11.2257 47.7615V44.5845C11.2257 43.3664 10.4842 42.5724 9.21333 42.5724C8.57799 42.5724 7.88959 42.7842 7.41297 43.4726C7.04248 42.8901 6.51303 42.5724 5.71874 42.5724C5.18905 42.5724 4.65984 42.7311 4.23604 43.3136V42.6783H3.12408V47.7615H4.23604V44.955C4.23604 44.0551 4.71267 43.6313 5.45413 43.6313C6.19512 43.6313 6.56609 44.1079 6.56609 44.955V47.7615H7.67805V44.955C7.67805 44.0551 8.20726 43.6313 8.89566 43.6313C9.63713 43.6313 10.0076 44.1079 10.0076 44.955V47.7615H11.2257ZM27.6931 42.6783H25.893V41.1428H24.781V42.6783H23.7749V43.6841H24.7808V46.0142C24.7808 47.1792 25.2574 47.8673 26.5283 47.8673C27.0049 47.8673 27.5341 47.7086 27.9051 47.4969L27.5872 46.5436C27.2695 46.7554 26.899 46.8084 26.6342 46.8084C26.1047 46.8084 25.893 46.4908 25.893 45.9611V43.6841H27.6931V42.6783ZM37.1185 42.5721C36.4831 42.5721 36.0596 42.8901 35.7947 43.3136V42.6783H34.6828V47.7615H35.7947V44.9022C35.7947 44.0551 36.1652 43.5785 36.8536 43.5785C37.0654 43.5785 37.3302 43.6315 37.542 43.6843L37.8597 42.6255C37.6479 42.5724 37.3302 42.5724 37.1185 42.5724V42.5721ZM22.8748 43.1018C22.3451 42.7311 21.6038 42.5724 20.8096 42.5724C19.5389 42.5724 18.6918 43.2077 18.6918 44.2138C18.6918 45.0612 19.3271 45.5375 20.4391 45.6965L20.9685 45.7496C21.551 45.8552 21.8687 46.0142 21.8687 46.279C21.8687 46.6495 21.4451 46.9143 20.7037 46.9143C19.9624 46.9143 19.3799 46.6495 19.0092 46.3849L18.4797 47.232C19.0623 47.6556 19.8565 47.8673 20.6506 47.8673C22.1333 47.8673 22.9806 47.1792 22.9806 46.2259C22.9806 45.3258 22.2922 44.8491 21.2331 44.6904L20.7037 44.6374C20.227 44.5843 19.8565 44.4786 19.8565 44.161C19.8565 43.7902 20.227 43.5785 20.8096 43.5785C21.4451 43.5785 22.0805 43.8431 22.3981 44.002L22.8748 43.1018ZM52.4213 42.5724C51.7857 42.5724 51.3622 42.8901 51.0973 43.3136V42.6783H49.9854V47.7615H51.0973V44.9022C51.0973 44.0551 51.468 43.5785 52.1562 43.5785C52.3682 43.5785 52.6331 43.6315 52.8448 43.6843L53.1625 42.6255C52.9507 42.5724 52.6331 42.5724 52.4213 42.5724ZM38.2304 45.2199C38.2304 46.7554 39.2893 47.8673 40.931 47.8673C41.6722 47.8673 42.2016 47.7086 42.7311 47.2851L42.2016 46.3849C41.7781 46.7026 41.3545 46.8613 40.8779 46.8613C39.9777 46.8613 39.3424 46.2259 39.3424 45.2199C39.3424 44.2669 39.9777 43.6313 40.8779 43.5785C41.3545 43.5785 41.7781 43.7372 42.2016 44.0551L42.7311 43.1549C42.2016 42.7311 41.6722 42.5724 40.931 42.5724C39.2893 42.5724 38.2304 43.6843 38.2304 45.2199ZM48.5029 45.2199V42.6783H47.3909V43.3136C47.0202 42.8372 46.4908 42.5724 45.8024 42.5724C44.3727 42.5724 43.2608 43.6843 43.2608 45.2199C43.2608 46.7554 44.3727 47.8673 45.8024 47.8673C46.5436 47.8673 47.0733 47.6027 47.3909 47.1261V47.7615H48.5029V45.2199ZM44.4256 45.2199C44.4256 44.3197 45.0081 43.5785 45.9611 43.5785C46.8613 43.5785 47.4968 44.2669 47.4968 45.2199C47.4968 46.12 46.8613 46.8613 45.9611 46.8613C45.0081 46.8082 44.4256 46.12 44.4256 45.2199ZM31.1351 42.5724C29.6524 42.5724 28.5933 43.6313 28.5933 45.2199C28.5933 46.8084 29.6522 47.8673 31.1879 47.8673C31.9292 47.8673 32.6706 47.6556 33.2531 47.1792L32.7234 46.3849C32.2999 46.7026 31.7704 46.9143 31.241 46.9143C30.5526 46.9143 29.8642 46.5967 29.7052 45.6962H33.4649V45.2729C33.518 43.6313 32.565 42.5724 31.1351 42.5724ZM31.1351 43.5254C31.8233 43.5254 32.3001 43.9492 32.4058 44.7435H29.7583C29.8642 44.0551 30.3408 43.5254 31.1351 43.5254ZM58.7223 45.2199V40.6661H57.6104V43.3136C57.2396 42.8372 56.7102 42.5724 56.0218 42.5724C54.5921 42.5724 53.4802 43.6843 53.4802 45.2199C53.4802 46.7554 54.5921 47.8673 56.0218 47.8673C56.7632 47.8673 57.2927 47.6027 57.6104 47.1261V47.7615H58.7223V45.2199ZM54.6452 45.2199C54.6452 44.3197 55.2275 43.5785 56.1807 43.5785C57.0809 43.5785 57.7162 44.2669 57.7162 45.2199C57.7162 46.12 57.0809 46.8613 56.1807 46.8613C55.2275 46.8082 54.6452 46.12 54.6452 45.2199ZM17.4737 45.2199V42.6783H16.3617V43.3136C15.991 42.8372 15.4615 42.5724 14.7731 42.5724C13.3435 42.5724 12.2315 43.6843 12.2315 45.2199C12.2315 46.7554 13.3435 47.8673 14.7731 47.8673C15.5146 47.8673 16.044 47.6027 16.3617 47.1261V47.7615H17.4737V45.2199ZM13.3435 45.2199C13.3435 44.3197 13.926 43.5785 14.879 43.5785C15.7792 43.5785 16.4148 44.2669 16.4148 45.2199C16.4148 46.12 15.7792 46.8613 14.879 46.8613C13.926 46.8082 13.3435 46.12 13.3435 45.2199Z" fill="black"/>
<path d="M22.504 4.07709H39.1834V34.0472H22.504V4.07709Z" fill="#FF5F00"/>
<path d="M23.5632 19.0623C23.5632 12.973 26.4224 7.57194 30.8172 4.07711C27.5875 1.53552 23.5104 0 19.0625 0C8.52494 0 0 8.52494 0 19.0623C0 29.5994 8.52494 38.1245 19.0623 38.1245C23.5101 38.1245 27.5872 36.589 30.8172 34.0472C26.4224 30.6054 23.5632 25.1515 23.5632 19.0623Z" fill="#EB001B"/>
<path d="M61.6875 19.0623C61.6875 29.5994 53.1625 38.1245 42.6252 38.1245C38.1774 38.1245 34.1003 36.589 30.8703 34.0472C35.3181 30.5526 38.1245 25.1515 38.1245 19.0623C38.1245 12.973 35.265 7.57194 30.8703 4.07711C34.1 1.53552 38.1774 0 42.6252 0C53.1625 0 61.6875 8.57801 61.6875 19.0623Z" fill="#F79E1B"/>
</svg>
